<?xml version="1.0" encoding="UTF-8" standalone="no"?>
<!-- Created with Inkscape (http://www.inkscape.org/) -->

<svg
   xmlns:dc="http://purl.org/dc/elements/1.1/"
   xmlns:cc="http://creativecommons.org/ns#"
   xmlns:rdf="http://www.w3.org/1999/02/22-rdf-syntax-ns#"
   xmlns:svg="http://www.w3.org/2000/svg"
   xmlns="http://www.w3.org/2000/svg"
   version="1.1"
   width="16"
   height="16"
   viewBox="0 0 16 16"
   id="svg2">
  <metadata
     id="metadata10">
    <rdf:RDF>
      <cc:Work
         rdf:about="">
        <dc:format>image/svg+xml</dc:format>
        <dc:type
           rdf:resource="http://purl.org/dc/dcmitype/StillImage" />
        <dc:title></dc:title>
      </cc:Work>
    </rdf:RDF>
  </metadata>
  <defs
     id="defs8" />
  <path
     d="M 14.341,3.579 C 13.994,3.106 13.51,2.552 12.979,2.021 12.448,1.49 11.894,1.006 11.421,0.659 10.615,0.068 10.224,0 10,0 H 2.25 C 1.561,0 1,0.561 1,1.25 v 13.5 C 1,15.439 1.561,16 2.25,16 h 11.5 C 14.439,16 15,15.439 15,14.75 V 5 C 15,4.776 14.932,4.385 14.341,3.579 z m -2.07,-0.85 c 0.48,0.48 0.856,0.912 1.134,1.271 H 10.999 V 1.595 c 0.359,0.278 0.792,0.654 1.271,1.134 z M 14,14.75 C 14,14.886 13.886,15 13.75,15 H 2.25 C 2.115,15 2,14.886 2,14.75 V 1.25 C 2,1.115 2.115,1 2.25,1 2.25,1 9.999,1 10,1 V 4.5 C 10,4.776 10.224,5 10.5,5 H 14 v 9.75 z"
     id="path4"
     style="fill:#3eb1bc;fill-opacity:1" />
</svg>
