<?xml version="1.0" encoding="UTF-8" standalone="no"?>
<!-- Created with Inkscape (http://www.inkscape.org/) -->

<svg
   xmlns:dc="http://purl.org/dc/elements/1.1/"
   xmlns:cc="http://creativecommons.org/ns#"
   xmlns:rdf="http://www.w3.org/1999/02/22-rdf-syntax-ns#"
   xmlns:svg="http://www.w3.org/2000/svg"
   xmlns="http://www.w3.org/2000/svg"
   version="1.1"
   width="16"
   height="16"
   viewBox="0 0 16 16"
   id="svg2">
  <metadata
     id="metadata12">
    <rdf:RDF>
      <cc:Work
         rdf:about="">
        <dc:format>image/svg+xml</dc:format>
        <dc:type
           rdf:resource="http://purl.org/dc/dcmitype/StillImage" />
        <dc:title></dc:title>
      </cc:Work>
    </rdf:RDF>
  </metadata>
  <defs
     id="defs10" />
  <path
     d="M 13.156,9.211 C 12.943,9.001 12.47,8.89 11.75,8.88 11.263,8.875 10.677,8.918 10.06,9.004 9.784,8.845 9.499,8.671 9.276,8.462 8.675,7.901 8.173,7.122 7.861,6.265 7.881,6.185 7.899,6.115 7.915,6.043 7.915,6.043 8.254,4.12 8.164,3.47 8.152,3.381 8.144,3.355 8.12,3.286 L 8.091,3.21 C 7.999,2.998 7.818,2.773 7.535,2.785 L 7.364,2.78 C 7.048,2.78 6.791,2.941 6.724,3.183 6.519,3.94 6.731,5.072 7.114,6.538 L 7.016,6.777 C 6.741,7.447 6.397,8.122 6.093,8.717 L 6.053,8.794 C 5.733,9.42 5.443,9.951 5.18,10.401 l -0.271,0.144 c -0.02,0.01 -0.485,0.257 -0.594,0.323 -0.926,0.553 -1.539,1.18 -1.641,1.678 -0.032,0.159 -0.008,0.362 0.156,0.456 l 0.263,0.132 c 0.114,0.057 0.234,0.086 0.357,0.086 0.659,0 1.425,-0.821 2.48,-2.662 1.218,-0.396 2.604,-0.726 3.819,-0.908 0.926,0.521 2.065,0.883 2.783,0.883 0.128,0 0.238,-0.012 0.327,-0.036 0.138,-0.037 0.254,-0.115 0.325,-0.222 0.139,-0.21 0.168,-0.499 0.13,-0.795 C 13.303,9.392 13.233,9.284 13.157,9.209 z M 3.307,12.72 c 0.12,-0.329 0.596,-0.979 1.3,-1.556 0.044,-0.036 0.153,-0.138 0.253,-0.233 -0.736,1.174 -1.229,1.642 -1.553,1.788 z m 4.169,-9.6 c 0.212,0 0.333,0.534 0.343,1.035 C 7.829,4.656 7.712,5.008 7.567,5.268 7.447,4.883 7.388,4.276 7.388,3.879 c 0,0 -0.009,-0.759 0.088,-0.759 v 0 z M 6.232,9.961 C 6.38,9.697 6.533,9.418 6.69,9.122 7.073,8.398 7.314,7.832 7.494,7.367 7.852,8.018 8.298,8.572 8.822,9.016 8.887,9.071 8.957,9.127 9.029,9.182 7.963,9.393 7.042,9.649 6.231,9.961 v 0 z m 6.72,-0.06 c -0.065,0.041 -0.251,0.064 -0.37,0.064 -0.386,0 -0.864,-0.176 -1.533,-0.464 0.257,-0.019 0.493,-0.029 0.705,-0.029 0.387,0 0.502,-0.002 0.88,0.095 0.378,0.097 0.383,0.293 0.318,0.333 v 0 z"
     id="path4"
     style="fill:#d60000;fill-opacity:1" />
  <path
     d="M 14.341,3.579 C 13.994,3.106 13.51,2.552 12.979,2.021 12.448,1.49 11.894,1.006 11.421,0.659 10.615,0.068 10.224,0 10,0 H 2.25 C 1.561,0 1,0.561 1,1.25 v 13.5 C 1,15.439 1.561,16 2.25,16 h 11.5 C 14.439,16 15,15.439 15,14.75 V 5 C 15,4.776 14.932,4.385 14.341,3.579 v 0 z m -2.07,-0.85 c 0.48,0.48 0.856,0.912 1.134,1.271 H 10.999 V 1.595 c 0.359,0.278 0.792,0.654 1.271,1.134 v 0 z M 14,14.75 C 14,14.886 13.886,15 13.75,15 H 2.25 C 2.115,15 2,14.886 2,14.75 V 1.25 C 2,1.115 2.115,1 2.25,1 2.25,1 9.999,1 10,1 V 4.5 C 10,4.776 10.224,5 10.5,5 H 14 v 9.75 z"
     id="path6"
     style="fill:#3eb1bc;fill-opacity:1" />
</svg>
