<?xml version="1.0" encoding="UTF-8" standalone="no"?>
<!-- Created with Inkscape (http://www.inkscape.org/) -->

<svg
   xmlns:dc="http://purl.org/dc/elements/1.1/"
   xmlns:cc="http://creativecommons.org/ns#"
   xmlns:rdf="http://www.w3.org/1999/02/22-rdf-syntax-ns#"
   xmlns:svg="http://www.w3.org/2000/svg"
   xmlns="http://www.w3.org/2000/svg"
   version="1.1"
   width="498.76727"
   height="657.86981"
   id="svg2">
  <defs
     id="defs4" />
  <metadata
     id="metadata7">
    <rdf:RDF>
      <cc:Work
         rdf:about="">
        <dc:format>image/svg+xml</dc:format>
        <dc:type
           rdf:resource="http://purl.org/dc/dcmitype/StillImage" />
        <dc:title></dc:title>
      </cc:Work>
    </rdf:RDF>
  </metadata>
  <g
     transform="translate(-95.375,-160.22279)"
     id="layer1">
    <path
       d="m 159.273,314.59295 434.86928,-154.37016 -10e-6,328.93491 -2e-5,328.93492 L 159.273,643.52786"
       id="path3013"
       style="fill:#ececec;fill-opacity:1;stroke:none" />
    <path
       d="m 362.375,214.14208 c -147.46956,0 -267,119.56168 -267,267.03125 0,147.46957 119.53044,267 267,267 65.24064,0 124.99446,-23.42317 171.375,-62.28125 -28.48491,-38.5949 -31.94013,-36.6603 -65.83187,-16.36357 -10.45379,5.86542 -21.33618,10.85459 -32.71199,14.93623 -22.7516,8.16328 -47.26984,12.61484 -72.83114,12.61484 -119.24794,0 -215.90625,-96.65831 -215.90625,-215.90625 0,-119.24794 96.65831,-215.90625 215.90625,-215.90625 28.89621,0 56.46474,5.67049 81.65386,15.96277 12.59456,5.14613 24.54803,11.4272 35.86765,18.77366 34.60349,24.35867 44.21044,30.5483 67.63474,-11.20518 C 499.52091,242.57178 434.28062,214.14208 362.375,214.14208 z"
       id="path2987"
       style="fill:#000080;fill-opacity:1;stroke:none" />
    <g
       transform="matrix(0.67939026,0,0,0.96362792,766.26649,152.59321)"
       id="text2986"
       style="font-size:247.48402405px;font-style:normal;font-variant:normal;font-weight:normal;font-stretch:normal;line-height:125%;letter-spacing:0px;word-spacing:0px;fill:#000080;fill-opacity:1;stroke:none;font-family:Pothana2000;-inkscape-font-specification:Pothana2000">
      <path
         d="m -476.98851,152.30353 c 4.29182,60.55826 1.74839,47.62834 -59.00101,31.26781 -18.48901,-4.89372 -36.34337,-7.34077 -53.56312,-7.34114 -29.9085,3.7e-4 -53.01947,5.80077 -69.33298,17.40122 -16.13248,11.60115 -24.19866,28.09604 -24.19857,49.48472 -9e-5,17.94529 5.34715,31.53997 16.04175,40.7841 10.87564,9.06339 31.3583,39.9151 61.44805,45.534 l 33.17107,6.79735 c 40.96513,7.79452 71.14534,-1.94011 90.54072,17.81731 19.57606,19.57655 29.36423,45.85961 29.36455,78.84927 -3.2e-4,39.33408 -13.23248,69.15176 -39.69653,89.45314 -26.28334,20.30143 -64.89226,30.45213 -115.82686,30.45214 -19.21399,-10e-6 -39.69665,-2.17516 -61.44805,-6.52546 -21.57034,-4.3503 -43.95626,-10.78512 -67.15783,-19.30448 -5.52836,-68.21542 1.79084,-47.5163 65.52647,-28.27698 21.38887,6.34424 42.41532,9.51633 63.07941,9.51629 31.35825,4e-5 55.5568,-6.16289 72.59571,-18.48879 17.03844,-12.3258 25.55778,-29.90826 25.55804,-52.74744 -2.6e-4,-19.93877 -6.16319,-35.52735 -18.48879,-46.76578 -12.14484,-11.23812 -32.17435,-36.4601 -60.08859,-42.07941 l -33.44296,-6.52546 c -40.96548,-8.15663 -70.6019,-4.14237 -88.90935,-21.54379 -18.30758,-17.40098 -27.46134,-41.59952 -27.4613,-72.59571 -4e-5,-35.88968 12.59771,-64.16663 37.79327,-84.83094 25.37668,-20.66354 60.26971,-30.99551 104.67921,-30.99592 19.03238,4.1e-4 38.42747,1.72241 58.18532,5.16599 19.75738,3.44439 39.96815,8.61037 60.63237,15.49796"
         id="path2991"
         style="font-size:556.83898926px;fill:#000080" />
    </g>
    <path
       d="m 235.53894,457.08853 -15.67922,38.40298 -20.54424,50.05936 c 15.64607,7.81478 16.34565,4.17219 21.54367,-9.37008 1.93675,-4.71959 5.81026,-14.15876 5.81026,-14.15876 l 11.62051,-28.31752 123.45517,-11.92501 123.46872,11.93669 11.62051,28.31168 c 0,0 3.87351,9.43723 5.81026,14.15584 4.85542,13.57847 7.28773,18.25999 21.55723,9.35548 l -23.9457,-58.32861 -12.30486,-30.12205 -126.20616,15.17199 z"
       id="rect3005"
       style="fill:#000080;fill-opacity:1;stroke:none" />
    <g
       transform="translate(-2,0)"
       id="text3017"
       style="font-size:160.21476746px;font-style:normal;font-variant:normal;font-weight:normal;font-stretch:normal;line-height:125%;letter-spacing:0px;word-spacing:0px;fill:#ff5555;fill-opacity:1;stroke:none;font-family:Pothana2000;-inkscape-font-specification:Pothana2000">
      <path
         d="m 383.91737,397.58052 c -11.63022,4e-5 -19.68789,1.32995 -24.17303,3.98972 -4.48521,2.65985 -6.72779,7.19718 -6.72777,13.612 -2e-5,5.11104 1.66888,9.17899 5.00671,12.20386 3.38993,2.97274 7.97941,4.45911 13.76846,4.4591 7.97939,1e-5 14.36816,-2.81626 19.16631,-8.44883 4.85019,-5.68468 7.27531,-13.22081 7.27538,-22.60843 l 0,-3.20742 -14.31606,0 m 28.71036,-5.94547 0,49.98888 C 404.6,437.76218 398.3,449.66218 398.23343,434.97439 l 0,-6.64954 c -3.28572,5.31964 -7.37974,9.25721 -12.28209,11.81271 -4.90245,2.50336 -10.90007,3.75504 -17.99287,3.75504 -8.97038,0 -16.11537,-2.50336 -21.43498,-7.51007 -5.26749,-5.05885 -7.90123,-11.81269 -7.90122,-20.26153 -1e-5,-9.85693 3.28565,-17.28876 9.85697,-22.29552 6.62343,-5.00666 16.48039,-7.51001 29.57089,-7.51006 l 20.1833,0 0,-1.40814 c -7e-5,-6.6234 -2.1905,-11.73441 -6.57131,-15.33306 -4.32877,-3.65065 -10.4307,-5.47601 -18.30579,-5.47609 -5.00675,8e-5 -9.88307,0.59984 -14.62898,1.79929 -13.31291,4.36333 -13.69023,7.66687 -13.69023,-7.90122 5.26746,-2.03389 10.37847,-3.54633 15.33306,-4.53733 4.95452,-1.04297 9.77869,-1.56451 14.47252,-1.5646 12.67318,9e-5 22.13899,3.28575 28.39744,9.85697 6.25831,6.57138 9.3875,16.53264 9.38759,29.88381"
         id="path3012" />
    </g>
    <g
       transform="matrix(2.7250848,1.3204669,-1.0578723,2.1831609,-59.590961,-1141.5342)"
       id="g3007"
       style="fill:#ff5555">
      <path
         d="m 356.03125,534.73718 c 5.46926,0.0849 3.76875,-1.075 5.75,3.64062 0.11875,1.58438 0,3.64063 0,3.64063 -5.46927,-0.0849 -3.38125,1.44375 -5.75,-3.64063 0,-1.21354 0,-3.64062 0,-3.64062"
         id="path2993"
         style="font-size:64px;font-style:normal;font-variant:normal;font-weight:normal;font-stretch:normal;line-height:125%;letter-spacing:0px;word-spacing:0px;fill:#ff5555;fill-opacity:1;stroke:none;font-family:Pothana2000;-inkscape-font-specification:Pothana2000" />
      <path
         d="m 361.91,548.36218 0,35 -5.6,0 0,-8.75 0,-8.75 0,-8.75 c 0.69,-4.55 -2.11,-8.75 5.6,-8.75 z"
         id="rect3004"
         style="fill:#ff5555;fill-opacity:1;stroke:none" />
    </g>
  </g>
</svg>
