<?xml version="1.0" encoding="UTF-8" standalone="no"?>
<svg
   xmlns:dc="http://purl.org/dc/elements/1.1/"
   xmlns:cc="http://creativecommons.org/ns#"
   xmlns:rdf="http://www.w3.org/1999/02/22-rdf-syntax-ns#"
   xmlns:svg="http://www.w3.org/2000/svg"
   xmlns="http://www.w3.org/2000/svg"
   id="svg2"
   viewBox="0 0 16 13"
   height="13"
   width="16"
   version="1.1">
  <metadata
     id="metadata10">
    <rdf:RDF>
      <cc:Work
         rdf:about="">
        <dc:format>image/svg+xml</dc:format>
        <dc:type
           rdf:resource="http://purl.org/dc/dcmitype/StillImage" />
        <dc:title></dc:title>
      </cc:Work>
    </rdf:RDF>
  </metadata>
  <defs
     id="defs8" />
  <path
     style="fill:#e3d4ff;fill-opacity:0.94117647"
     id="path4"
     d="M 14.5,0 1.5,0 C 0.675,0 0,0.675 0,1.5 l 0,10 C 0,12.325 0.675,13 1.5,13 l 13,0 c 0.825,0 1.5,-0.675 1.5,-1.5 l 0,-10 C 16,0.675 15.325,0 14.5,0 Z M 6.23,6.6 2,9.895 2,2.057 6.23,6.6 Z M 2.756,2 13.244,2 8,5.938 2.756,2 Z M 6.395,6.777 8,8.5 9.605,6.777 12.895,11 3.105,11 6.395,6.777 Z M 9.77,6.6 14,2.057 14,9.895 9.77,6.6 Z" />
</svg>
