<?xml version="1.0" encoding="UTF-8" standalone="no"?>
<svg
   xmlns:dc="http://purl.org/dc/elements/1.1/"
   xmlns:cc="http://creativecommons.org/ns#"
   xmlns:rdf="http://www.w3.org/1999/02/22-rdf-syntax-ns#"
   xmlns:svg="http://www.w3.org/2000/svg"
   xmlns="http://www.w3.org/2000/svg"
   width="127.04308mm"
   height="68.649918mm"
   viewBox="0 0 450.15266 243.24774"
   id="svg2"
   version="1.1">
  <defs
     id="defs4" />
  <metadata
     id="metadata7">
    <rdf:RDF>
      <cc:Work
         rdf:about="">
        <dc:format>image/svg+xml</dc:format>
        <dc:type
           rdf:resource="http://purl.org/dc/dcmitype/StillImage" />
        <dc:title></dc:title>
      </cc:Work>
    </rdf:RDF>
  </metadata>
  <g
     transform="translate(-59.205936,-405.63235)"
     id="layer1">
    <g
       id="g4150">
      <rect
         y="406.63235"
         x="60.205936"
         height="241.24773"
         width="448.15265"
         id="rect4136"
         style="fill:#5e862b;fill-opacity:1;fill-rule:nonzero;stroke:#ff0000;stroke-width:2;stroke-miterlimit:4;stroke-dasharray:none;stroke-opacity:0" />
      <path
         d="m 114.37166,460.23853 c 0.33913,2.1802 0.56717,4.37856 0.79138,6.57349 0.46341,3.17352 0.55426,6.37561 0.60809,9.57662 0.12636,4.8545 -0.008,9.70077 -0.40389,14.53899 -0.32548,3.44759 -0.5034,6.9073 -0.88745,10.34923 -0.26483,2.47376 -0.52702,4.94198 -0.90422,7.40137 -0.49012,2.6391 -0.96012,5.27976 -1.34524,7.93668 -0.25969,1.81968 -0.32101,3.66267 -0.61913,5.47768 -0.1379,0.83958 -0.37651,1.83443 -0.56521,2.66564 -0.65969,2.34229 -1.05075,4.74167 -1.42065,7.14259 -0.38163,2.39319 -0.89575,4.76183 -1.39958,7.13138 -0.46994,2.24643 -1.05744,4.46705 -1.50044,6.71876 -0.41499,2.04588 -0.65965,4.11955 -1.06847,6.16647 -0.46086,1.9995 -0.59174,4.04785 -0.67518,6.09136 -0.0493,1.54582 -0.0396,3.0924 -0.0246,4.63863 0.0191,1.11651 0.001,2.23308 0.002,3.34964 -0.0112,1.57603 0.0141,3.15252 -0.0675,4.72674 -0.0779,2.14071 -0.40653,4.25106 -0.75693,6.35992 -0.20386,1.47458 -0.81587,2.78717 -1.57643,4.04482 -0.62458,0.95383 -1.23698,1.91597 -1.72964,2.94565 -0.16721,0.36292 -0.34414,0.72129 -0.5205,1.07981 -0.0183,0.0372 -0.0331,0.14371 -0.0577,0.11028 -0.13451,-0.18289 -0.0987,-0.69555 -0.30795,-0.60751 -1.877636,0.78994 -3.556351,1.98758 -5.334526,2.98137 0.769943,-0.67088 1.563282,-1.31436 2.413667,-1.88059 4.297539,-2.73513 5.043369,-3.54583 8.954269,-3.72041 1.81409,-0.13482 3.59465,0.24432 5.38294,0.48034 1.85836,0.25554 3.67525,0.70594 5.49918,1.12852 1.64638,0.51261 3.34725,0.79873 5.03542,1.13163 2.48187,0.67198 5.00325,1.07202 7.56032,1.30753 2.5667,0.23036 5.13786,0.23646 7.69834,-0.0475 2.00568,-0.1998 3.77612,-1.10737 5.58342,-1.91382 1.99453,-0.83755 3.98685,-1.6806 5.9865,-2.50586 2.07859,-0.87954 4.23515,-1.54523 6.36583,-2.28424 2.25918,-0.74916 4.53784,-1.43407 6.81178,-2.13586 1.00158,-0.39549 0.52229,-0.20593 1.43793,-0.56856 0,0 -4.9013,3.84226 -4.9013,3.84226 l 0,0 c -0.89614,0.3306 -0.42417,0.16335 -1.41723,0.49805 -2.27029,0.68474 -4.5432,1.36167 -6.78298,2.14252 -2.12693,0.73551 -4.27623,1.41155 -6.34169,2.31258 -2.0029,0.83824 -4.01132,1.66393 -5.99916,2.53751 -1.81864,0.81903 -3.65087,1.58232 -5.67002,1.7284 -2.57802,0.21497 -5.15932,0.18456 -7.73528,-0.0721 -2.58182,-0.26473 -5.12634,-0.7011 -7.64944,-1.31238 -1.7083,-0.31087 -3.41668,-0.62184 -5.07889,-1.13454 -1.79825,-0.43036 -3.59743,-0.8549 -5.43329,-1.09886 -1.7841,-0.2342 -3.56815,-0.5273 -5.37378,-0.34277 -0.64243,0.0459 -1.283514,0.0891 -1.911529,0.24377 -2.063779,0.50826 -5.144016,2.94516 3.811169,-2.46018 -0.88598,0.45389 -1.62277,1.10414 -2.39317,1.72655 -1.867,1.07602 -3.628596,2.36023 -5.600995,3.22806 -0.215773,0.0949 -0.290439,-0.37842 -0.379806,-0.59656 -0.02512,-0.0613 0.331563,-0.60381 0.431642,-0.79401 0.07078,-0.13452 0.149778,-0.26456 0.224667,-0.39683 0.44376,-1.07388 1.054713,-2.07153 1.7114,-3.028 0.756213,-1.21553 1.505469,-2.41012 1.731576,-3.85994 0.390659,-2.08288 0.756226,-4.1659 0.78902,-6.29248 0.08852,-1.55541 0.02622,-3.11251 0.03132,-4.66991 -0.002,-1.11529 -0.02426,-2.23051 -0.01049,-3.34581 0.01416,-1.56786 0.03605,-3.13597 0.09525,-4.70285 0.08345,-2.06484 0.168542,-4.14213 0.600896,-6.16967 0.45361,-2.04481 0.72485,-4.11992 1.11786,-6.17638 0.41237,-2.26452 1.01754,-4.48836 1.50542,-6.73734 0.50755,-2.35588 1.01642,-4.71179 1.40191,-7.09153 0.3629,-2.42161 0.76038,-4.84296 1.43327,-7.20151 0.0735,-0.30909 0.556,-2.31889 0.60896,-2.61985 0.31869,-1.81122 0.34185,-3.66256 0.60802,-5.48034 0.37074,-2.6546 0.8227,-5.29354 1.3136,-7.92803 0.3739,-2.46174 0.66664,-4.92829 0.94928,-7.40224 0.44915,-3.4576 0.65255,-6.93789 1.03651,-10.40269 0.14536,-1.4881 0.32839,-3.18658 0.40155,-4.67573 0.16014,-3.25934 0.0873,-6.52742 0.005,-9.78736 -0.11496,-3.16399 -0.2721,-6.32845 -0.72422,-9.46571 -0.2167,-2.14686 -0.43949,-4.30726 -0.8949,-6.41755 0,0 5.52411,-2.98733 5.52411,-2.98733 z"
         id="path4138"
         style="fill:#d1fc9b;fill-opacity:1;fill-rule:nonzero;stroke:#ff0000;stroke-width:2;stroke-miterlimit:4;stroke-dasharray:none;stroke-opacity:0" />
      <path
         d="m 218.9952,538.67832 c 0.42012,-1.01869 0.38703,-2.08078 0.19687,-3.14259 -0.26948,-1.14394 -0.99162,-2.03192 -1.78996,-2.85631 -1.03866,-0.94931 -2.07508,-1.90191 -3.13226,-2.83123 -1.18521,-1.10144 -2.57349,-1.93145 -3.97448,-2.72312 -1.18301,-0.62695 -2.36928,-1.21958 -3.68303,-1.50534 -1.00243,-0.0771 -1.98811,-0.23528 -2.98404,-0.37146 -1.17693,-0.21443 -2.33833,-0.0747 -3.51356,0.0406 -1.24631,0.12123 -2.47581,0.37715 -3.69288,0.66613 -1.32019,0.3802 -2.52561,1.07636 -3.71995,1.74088 -1.90185,1.04772 -5.40161,3.02156 3.15628,-1.84834 0.22674,-0.12902 -0.44756,0.26832 -0.66746,0.40868 -0.55122,0.35185 -0.66113,0.44338 -1.18249,0.82219 -0.9613,0.71301 -1.83582,1.52258 -2.57832,2.46072 -0.64658,1.03153 -1.02553,2.20121 -1.38836,3.35537 -0.49583,1.67391 -0.76022,3.40157 -0.94524,5.13376 -0.28366,2.58582 -0.63009,5.16314 -0.8454,7.75595 -0.24185,2.70344 -0.27663,5.39447 0.13492,8.07855 0.4414,2.78688 1.21499,5.50107 1.9434,8.22199 0.52276,2.40861 1.17891,4.7814 1.89865,7.13755 0.64516,2.39711 1.75187,4.60729 3.09314,6.68246 0.86755,1.18447 1.73149,2.3895 2.75177,3.44958 0.55748,0.5874 1.30693,0.93061 2.07014,1.16802 1.28395,0.40749 2.63651,0.61542 3.96834,0.8176 1.49994,0.21029 3.01528,0.24309 4.52717,0.26588 1.22612,0.0556 2.43375,0.003 3.55542,-0.5243 2.0761,-1.29671 0.0247,-0.008 -4.4173,2.51274 -0.17611,0.0999 0.34566,-0.21118 0.51434,-0.32321 0.56893,-0.37787 1.08863,-0.80942 1.60866,-1.25051 1.14383,-1.0157 2.0626,-2.24183 2.95525,-3.47488 0.83672,-1.15356 1.65758,-2.31682 2.55726,-3.42262 0.77031,-0.96987 1.43134,-2.01712 2.1912,-2.99549 0.82274,-0.99091 1.61908,-2.00264 2.46107,-2.97745 0.91426,-0.90664 1.64882,-1.94201 2.31859,-3.03558 0.86553,-1.36778 1.36834,-2.89839 1.80765,-4.4428 0.41368,-1.51046 1.05644,-2.94254 1.65402,-4.38606 0.56067,-1.28011 1.02624,-2.59648 1.42506,-3.93498 0.35152,-1.35885 0.8888,-2.65552 1.37074,-3.97001 0.31574,-0.84553 0.42091,-1.73629 0.47064,-2.63068 0.0281,-0.80069 -0.0963,-1.61834 -0.30277,-2.39168 -0.14329,-0.71652 -0.4369,-1.21262 -0.97717,-1.68595 -0.69611,-0.50507 -1.4974,-0.82861 -2.22288,-1.28203 -0.63699,-0.41196 -1.29171,-0.82282 -1.89089,-1.2907 -0.86728,-0.67357 -1.44832,-1.59379 -2.08115,-2.47295 -0.42109,-0.54752 -0.81563,-1.11446 -1.22282,-1.67227 0,0 5.35773,-3.17037 5.35773,-3.17037 l 0,0 c 0.40802,0.55831 0.8109,1.12051 1.23083,1.67 0.60469,0.82775 1.18768,1.67494 2.03093,2.283 0.60348,0.43042 1.21353,0.85751 1.84634,1.243 0.77404,0.4437 1.59712,0.81357 2.29411,1.38054 0.60654,0.56059 0.98566,1.17488 1.15586,1.9916 0.24115,0.82548 0.37124,1.7161 0.389,2.5729 -0.0341,0.95013 -0.10693,1.90325 -0.41318,2.81122 -0.46436,1.31918 -1.08469,2.58373 -1.42313,3.94687 -0.36486,1.36305 -0.80965,2.70339 -1.38038,3.99534 -0.59691,1.43215 -1.26765,2.83814 -1.71314,4.32776 -0.41994,1.58033 -0.88547,3.16 -1.71682,4.58179 -0.64004,1.12797 -1.30795,2.24067 -2.25938,3.13768 -0.85543,0.957 -1.64889,1.96238 -2.46808,2.9491 -0.79265,0.96188 -1.47947,1.99242 -2.19437,3.01088 -0.92718,1.08335 -1.76297,2.23183 -2.59253,3.39053 -0.90153,1.25024 -1.78994,2.51639 -2.89309,3.6022 -2.46729,2.21575 -5.31683,3.97911 -8.39833,5.2636 -1.19363,0.35332 -2.42236,0.36391 -3.65979,0.30572 -1.53029,-0.0342 -3.06337,-0.0859 -4.57661,-0.33728 -1.37278,-0.23047 -2.76865,-0.42528 -4.09032,-0.87283 -0.83207,-0.33114 -1.62993,-0.74394 -2.22546,-1.43281 -0.98483,-1.13402 -1.84455,-2.37397 -2.70049,-3.60583 -1.33387,-2.13977 -2.47848,-4.39375 -3.15565,-6.8351 -0.73285,-2.36156 -1.39925,-4.74095 -1.90198,-7.16366 -0.71751,-2.74464 -1.45981,-5.48697 -1.94885,-8.28409 -0.0846,-0.47332 -0.19058,-0.94332 -0.25384,-1.41996 -0.29892,-2.25245 -0.0553,-4.53287 0.0463,-6.78869 0.1987,-2.58652 0.52394,-5.15782 0.78779,-7.73795 0.14872,-1.75568 0.36934,-3.50694 0.81867,-5.21434 0.36942,-1.19971 0.7483,-2.38898 1.27957,-3.52985 0.68708,-1.02844 1.5674,-1.88346 2.53905,-2.64603 2.86484,-2.22556 6.15809,-3.80989 9.31499,-5.57973 1.23346,-0.65376 2.46959,-1.33914 3.85034,-1.62752 1.23269,-0.27184 2.4808,-0.49168 3.73917,-0.60025 1.20911,-0.11469 2.41018,-0.13236 3.61402,0.0689 1.00908,0.14642 2.02823,0.21972 3.02609,0.42688 1.3144,0.38661 2.51786,1.02588 3.71638,1.68165 1.43528,0.81806 2.8516,1.6823 4.06333,2.81802 1.06906,0.94364 2.14016,1.88569 3.17858,2.8625 0.87666,0.91394 1.64332,1.9114 1.97491,3.1588 0.25103,1.12806 0.32967,2.28899 -0.005,3.41213 0,0 -5.70126,2.67752 -5.70126,2.67752 z"
         id="path4140"
         style="fill:#d1fc9b;fill-opacity:1;fill-rule:nonzero;stroke:#ff0000;stroke-width:2;stroke-miterlimit:4;stroke-dasharray:none;stroke-opacity:0" />
      <path
         d="m 298.5179,536.06602 c -0.69921,-0.95234 -1.41371,-1.87333 -2.2326,-2.72682 -0.78998,-0.82258 -1.60465,-1.61199 -2.49067,-2.32959 -0.85007,-0.75888 -1.88401,-1.19932 -2.97464,-1.48069 -0.9328,-0.20722 -1.89022,-0.22314 -2.84113,-0.23067 -0.95253,-1.5e-4 -1.90505,0.006 -2.85757,0.005 -1.49102,0.19238 -2.9706,0.58431 -4.4098,1.02108 -1.48299,0.44749 -2.90502,1.02064 -4.30289,1.68521 -0.54786,0.2417 -0.83919,0.35777 -1.36337,0.63663 -0.20269,0.10784 -0.79699,0.45632 -0.59774,0.34224 8.65615,-4.95612 5.46371,-3.16894 3.59403,-1.98838 -1.19033,0.74306 -2.31319,1.58858 -3.42754,2.43971 -1.11336,0.85216 -2.19939,1.72096 -3.1651,2.73954 -0.96668,1.10372 -1.82265,2.29988 -2.68232,3.48746 -0.81325,1.09068 -1.67512,2.14177 -2.20846,3.40169 -0.57237,1.70884 -0.44932,3.48295 -0.23216,5.23824 0.31701,2.11612 1.04414,4.13668 1.72672,6.15521 0.82693,1.76572 1.45465,3.61477 2.21188,5.40885 0.68403,1.62062 0.96484,2.1032 1.77944,3.7147 2.53609,4.65449 5.66124,8.94605 8.55878,13.3746 2.04857,3.1661 4.10441,6.38163 6.78087,9.06148 1.07232,0.97678 2.09622,1.65316 3.52823,1.89212 1.3892,0.1511 2.7739,0.11359 4.14921,-0.11948 0.30108,-0.0904 0.60401,-0.17481 0.90324,-0.27112 0.33266,-0.10706 0.66857,-0.20677 0.9921,-0.33888 0.328,-0.13394 1.26478,-0.6372 0.95918,-0.45794 -7.63964,4.48127 -4.35535,2.59809 -2.48363,0.97585 1.78119,-1.78095 3.04156,-3.98326 4.3559,-6.11049 1.3497,-1.9998 2.33833,-4.17067 3.21025,-6.40899 0.86572,-2.23628 1.62505,-4.51128 2.41347,-6.77535 0.8312,-2.10984 1.4055,-4.30262 2.0169,-6.48191 0.61734,-2.01892 1.12417,-4.0659 1.58403,-6.12522 0.33194,-1.36385 0.53382,-2.74955 0.62999,-4.1484 0.0603,-1.02447 0.0551,-2.05092 0.0507,-3.07665 0.15888,-2.67945 -0.30232,-1.04702 5.59654,-3.2152 0.16059,-0.059 -0.12902,0.31733 -0.18077,0.48042 -0.0692,0.21819 -0.12123,0.44148 -0.18185,0.66222 -0.63505,2.12237 -0.62119,4.34153 -0.63965,6.53489 0.11766,2.69527 -0.27353,5.35905 -0.73179,8.00511 -0.45406,2.53119 -1.25865,4.97728 -2.0603,7.41449 -0.81176,2.36088 -1.65765,4.71011 -2.51877,7.05342 -0.84498,2.34129 -1.71069,4.67503 -2.55362,7.01706 -0.82729,2.32803 -1.65187,4.65746 -2.53339,6.96562 -0.80749,2.13068 -1.65248,4.24554 -2.53434,6.34639 -0.66649,1.73879 -1.54116,3.37738 -2.5002,4.96887 -0.77034,1.26226 -1.59538,2.4871 -2.514,3.64592 -0.78503,0.96209 -1.65507,1.84938 -2.52631,2.73245 -0.84461,0.84939 -1.69459,1.69341 -2.54298,2.539 -0.87832,0.91429 -1.79411,1.78326 -2.78025,2.58003 -1.04461,0.72271 -1.96322,1.58388 -2.84045,2.49656 -0.80509,0.84529 -1.59649,1.70428 -2.43642,2.51533 -2.44367,2.00784 -5.20683,3.81504 -8.19489,4.84883 -1.17014,0.49642 -2.44972,0.66692 -3.70658,0.78641 -0.9492,0.0748 -1.90196,0.0722 -2.85338,0.0709 -0.95059,-0.11176 -1.82155,-0.47208 -2.66731,-0.90095 -1.18447,-0.62993 -2.32785,-1.33554 -3.47496,-2.03058 -0.98698,-0.61185 -1.81205,-1.4518 -2.54363,-2.34593 -0.65925,-0.82703 -1.33203,-1.6264 -1.78925,-2.58569 -0.27843,-0.98042 -0.55711,-1.9807 -0.65539,-2.99818 -0.0462,-0.72223 0.0657,-1.41491 0.30234,-2.09362 0,0 5.73324,-2.59857 5.73324,-2.59857 l 0,0 c -0.37122,0.53849 -0.45755,1.16867 -0.46381,1.81405 0.007,0.94915 0.33894,1.8695 0.54205,2.78967 0.41393,0.92216 1.07974,1.66453 1.69982,2.4539 0.69158,0.838 1.47711,1.61499 2.41188,2.17952 1.13305,0.68876 2.25729,1.40191 3.4604,1.96419 0.80251,0.35569 1.63114,0.66413 2.52262,0.66208 0.93189,-0.003 1.8656,-0.0102 2.79318,-0.11062 1.23524,-0.15339 2.45767,-0.39744 3.59933,-0.91346 2.23565,-0.99153 0.81553,-0.38609 -4.25998,2.56894 -0.15971,0.093 0.31775,-0.1889 0.47352,-0.28834 0.44117,-0.28162 0.88839,-0.56254 1.28057,-0.91108 0.89511,-0.74369 1.64755,-1.64045 2.45998,-2.47114 0.87782,-0.93316 1.74829,-1.87746 2.82368,-2.5911 1.00689,-0.75003 1.93316,-1.58622 2.79302,-2.50188 0.84797,-0.84569 1.69703,-1.69028 2.54484,-2.53612 0.87324,-0.87505 1.74939,-1.74917 2.56152,-2.68211 0.9498,-1.12702 1.79621,-2.32557 2.57382,-3.57788 0.96884,-1.57745 1.92643,-3.16867 2.5876,-4.90635 0.87609,-2.10285 1.76562,-4.19944 2.55337,-6.33789 0.90799,-2.29815 1.72847,-4.62967 2.55573,-6.95781 0.83418,-2.34536 1.70846,-4.67592 2.54659,-7.01984 0.86222,-2.3403 1.70782,-4.68642 2.53683,-7.03875 0.79779,-2.4161 1.61599,-4.83668 2.10422,-7.33868 0.47365,-2.61164 0.9028,-5.24557 0.77825,-7.91087 -0.004,-2.20616 -0.0903,-4.45142 0.47237,-6.60482 0.0375,-0.20171 0.20249,-1.16157 0.25994,-1.19616 4.92405,-2.96486 6.23002,-5.18059 5.70145,-2.27931 -7.8e-4,1.04117 0.006,2.08341 -0.0454,3.12354 -0.0997,1.43912 -0.28859,2.86925 -0.65411,4.2677 -0.48113,2.0688 -0.96961,4.13416 -1.59724,6.16539 -0.61595,2.19338 -1.16766,4.41033 -2.02159,6.52785 -0.80198,2.25922 -1.53,4.54471 -2.38519,6.78502 -0.88513,2.26718 -1.80712,4.50569 -3.19709,6.52369 -1.31791,2.15473 -2.57742,4.37282 -4.27172,6.26214 -3.05424,2.90956 -6.88005,5.17346 -11.00248,6.12384 -1.43632,0.17756 -2.89677,0.22568 -4.32898,-0.0254 -1.43747,-0.37688 -2.5921,-1.20609 -3.62722,-2.26785 -2.57221,-2.81252 -4.52553,-6.11893 -6.58372,-9.3091 -2.87952,-4.46573 -6.06727,-8.73533 -8.67806,-13.37182 -0.86953,-1.63223 -1.14384,-2.07833 -1.88366,-3.71974 -0.80326,-1.78213 -1.46703,-3.62649 -2.31948,-5.38761 -0.71273,-2.04865 -1.47289,-4.09857 -1.81547,-6.24967 -0.24004,-1.82907 -0.42332,-3.66187 0.0409,-5.4773 0.43974,-1.35266 1.26894,-2.45629 2.14986,-3.56174 0.87104,-1.19288 1.72172,-2.40376 2.65857,-3.54611 0.91849,-1.08495 1.97908,-1.98888 3.11468,-2.83987 1.10536,-0.87355 2.23814,-1.71741 3.40954,-2.49997 2.93507,-1.82623 5.84917,-3.7258 9.02627,-5.10447 1.41832,-0.64401 2.87528,-1.17685 4.37137,-1.6135 1.49182,-0.39296 2.99547,-0.84707 4.54497,-0.90996 0.96028,-0.008 1.92082,-0.0193 2.88104,-0.003 0.98205,0.0322 1.96802,0.0996 2.91602,0.37942 1.13822,0.36796 2.21617,0.88544 3.11646,1.68952 0.89459,0.74333 1.71573,1.56436 2.52566,2.39849 0.80861,0.85685 1.49109,1.80453 2.26075,2.69133 0,0 -5.36437,3.28729 -5.36437,3.28729 z"
         id="path4146"
         style="fill:#d1fc9b;fill-opacity:1;fill-rule:nonzero;stroke:#ff0000;stroke-width:2;stroke-miterlimit:4;stroke-dasharray:none;stroke-opacity:0" />
      <path
         d="m 380.8195,550.34454 c -0.58193,-1.17508 -1.34243,-2.25205 -2.18573,-3.25225 -0.77684,-0.87258 -1.68679,-1.63703 -2.67941,-2.25263 -1.18455,-0.76473 -2.44613,-1.39693 -3.67531,-2.08423 -1.17979,-0.60598 -2.36941,-1.16095 -3.67036,-1.4398 -1.24684,-0.184 -2.49619,0.12734 -3.69516,0.44964 -1.44371,0.3263 -2.83314,0.87149 -4.19917,1.43507 -0.6301,0.27629 -0.83006,0.34811 -1.43433,0.67609 -0.22312,0.12111 -0.87857,0.50923 -0.65801,0.3835 8.34904,-4.75959 5.38197,-3.24162 3.60862,-1.9109 -1.35907,1.10388 -2.55462,2.37338 -3.73543,3.66038 -1.82714,1.93684 -3.45507,4.01364 -4.85027,6.27933 -1.15523,1.92074 -2.42204,3.76833 -3.67917,5.62275 -0.94924,1.41745 -1.6737,2.94263 -2.11248,4.58877 -0.35958,1.62265 -0.42989,3.27631 -0.25711,4.92422 0.3435,2.20884 1.14241,4.28204 2.16195,6.25799 1.33251,2.53281 2.71643,5.02669 4.31542,7.40113 2.13712,3.01794 4.68677,5.70576 7.16818,8.43683 1.35721,1.37087 2.69452,2.78267 4.18917,4.00705 0.79507,0.69627 1.66174,1.27456 2.64629,1.66015 1.06018,0.3885 2.15025,0.35643 3.25263,0.25425 1.15338,-0.0455 2.24496,-0.30201 3.29785,-0.76281 2.30079,-0.89684 6.95897,-3.79917 -2.37968,1.58291 1.05063,-0.6207 2.01063,-1.37843 2.8916,-2.21991 0.77393,-0.85971 1.55247,-1.71834 2.28774,-2.61159 0.90983,-1.22687 1.45712,-2.63306 1.89612,-4.08105 0.51552,-2.09501 0.93045,-4.21265 1.45829,-6.30463 0.63454,-2.29286 1.43556,-4.53547 2.20428,-6.78573 0.64442,-1.89351 1.25772,-3.79423 2.04655,-5.6339 0.46302,-1.14909 1.06622,-2.22651 1.77301,-3.24126 0.7754,-0.91214 1.46185,-1.87566 2.06591,-2.90841 0.67462,-1.22665 1.14722,-2.53791 1.46064,-3.8985 0.27477,-1.42821 0.25845,-2.96613 -0.29663,-4.3338 -0.16582,-0.40857 -0.39306,-0.78944 -0.58958,-1.18415 -1.61632,-2.76712 -4.15316,-4.75631 -6.58311,-6.76536 0,0 4.87543,-3.06029 4.87543,-3.06029 l 0,0 c 2.56457,2.01134 5.23558,3.99796 7.001,6.79833 0.229,0.41724 0.49137,0.81784 0.687,1.25173 0.63929,1.41792 0.74965,3.07594 0.49482,4.5907 -0.27216,1.41403 -0.71648,2.76071 -1.33728,4.0624 -0.61129,1.04179 -1.19432,2.09842 -2.04747,2.96893 -0.74103,0.96831 -1.37344,2.00734 -1.8463,3.13466 -0.87228,1.81562 -1.52057,3.71573 -2.16481,5.62151 -0.75608,2.23562 -1.53236,4.46595 -2.19872,6.73045 -0.53895,2.08444 -0.97985,4.19137 -1.40837,6.30103 -0.40752,1.50161 -0.90244,2.95835 -1.76534,4.27034 -0.65889,0.96256 -1.51603,1.76579 -2.24301,2.67803 -0.8267,0.91776 -1.80542,1.68859 -2.83267,2.37159 -2.74789,1.59492 -5.38608,3.40113 -8.3669,4.52689 -1.09939,0.38257 -2.23784,0.55085 -3.40021,0.60536 -1.17647,0.0641 -2.34629,-0.0161 -3.44404,-0.48531 -1.00568,-0.46648 -1.90617,-1.08329 -2.72321,-1.83572 -1.45156,-1.2982 -2.78091,-2.72969 -4.09348,-4.16596 -2.41796,-2.81637 -4.97017,-5.52612 -7.17566,-8.51679 -1.66711,-2.36261 -3.07831,-4.86721 -4.42525,-7.42487 -1.06171,-2.03006 -1.93098,-4.14823 -2.32897,-6.41751 -0.23578,-1.70876 -0.18998,-3.42104 0.1427,-5.11822 0.39186,-1.72243 1.08034,-3.31531 2.04243,-4.80207 1.28938,-1.85023 2.56747,-3.70667 3.7601,-5.62072 1.3719,-2.28595 2.93543,-4.41157 4.75445,-6.36671 0.66362,-0.73331 1.30636,-1.49663 1.99691,-2.20486 0.95799,-0.98251 0.19299,-0.14252 1.14871,-1.02746 0.16842,-0.15595 0.3193,-0.32984 0.47894,-0.49475 2.73832,-2.23449 5.92407,-3.89664 9.15487,-5.30603 1.39031,-0.54423 2.79814,-1.05714 4.26075,-1.37271 1.2841,-0.29044 2.59522,-0.53941 3.90227,-0.22381 1.30622,0.3732 2.51606,0.97611 3.71737,1.60383 1.25052,0.68694 2.53726,1.31331 3.73142,2.09829 1.02032,0.68554 1.97663,1.47373 2.76545,2.42222 0.85986,1.05049 1.6261,2.17309 2.31415,3.3436 0,0 -5.47039,3.11475 -5.47039,3.11475 z"
         id="path4148"
         style="fill:#d1fc9b;fill-opacity:1;fill-rule:nonzero;stroke:#ff0000;stroke-width:2;stroke-miterlimit:4;stroke-dasharray:none;stroke-opacity:0" />
    </g>
  </g>
</svg>
